<svg width="109" height="23" viewBox="0 0 109 23" fill="none" xmlns="http://www.w3.org/2000/svg">
<path d="M59.0527 16.7448C58.9883 16.6716 58.9259 16.4855 58.9883 16.0166L59.6795 11.3549C59.853 10.1822 59.8891 9.05818 59.5186 8.40016L63.6763 0.252483L63.8069 0.000974836L63.2747 0H0V22.4661L51.8525 22.4505L51.8515 22.4524L52.2658 22.4495L53.5273 19.8886C54.1502 19.6293 54.8657 19.1097 55.3668 18.633C55.7392 19.5708 56.5697 20.0095 57.9589 20.0095H59.4377L60.009 16.8208H59.2895C59.1189 16.8208 59.0683 16.7633 59.0527 16.7448ZM18.2499 7.67294H14.7658C14.7912 6.34033 14.2794 4.98336 11.7175 4.98336C9.61676 4.98336 8.38749 5.64918 8.18278 7.10948C7.61932 11.08 18.6847 8.05702 17.5821 14.8702C17.0187 18.3796 14.4578 19.9676 9.56509 19.9676C4.18595 19.9676 2.85432 17.5851 3.18771 14.2297H6.77414C6.64546 15.7153 7.43995 17.0216 10.2056 17.0216C12.7158 17.0216 13.8173 16.3305 13.9967 14.8955C14.4061 11.6171 3.41875 14.4344 4.59635 7.23718C5.0828 3.90714 7.92639 2.03741 12.3824 2.03741C17.2244 2.03741 18.633 4.41893 18.2499 7.67294ZM31.2591 19.7112H29.9782C28.4672 19.7112 27.7497 19.1994 27.4943 18.1232C26.4951 19.2247 24.9324 19.9676 22.7049 19.9676C20.5788 19.9676 18.325 19.3018 18.7861 16.4582C19.6313 11.2584 27.623 13.6916 28.1864 11.2584C28.2634 9.9521 27.5976 9.3633 26.035 9.3633C24.524 9.3633 23.7041 9.79905 23.32 11.2077H20.1187C20.6305 8.79985 22.4748 6.98178 26.496 6.98178C30.1078 6.98178 31.9005 8.3134 31.4648 11.2594L30.7736 15.921C30.6713 16.6892 30.8506 16.9963 31.3117 16.9963H31.7475L31.2591 19.7112ZM39.0948 17.354C40.4518 17.354 41.5787 16.6882 42.2455 15.1772H45.7032C44.5763 18.4556 41.8868 19.9666 38.6084 19.9666C34.8436 19.9666 32.3841 17.9682 33.1015 13.4869C33.819 9.00456 36.918 6.9808 40.6828 6.9808C43.9612 6.9808 46.1127 8.46645 46.1643 11.7195H42.7066C42.4502 10.2338 41.5027 9.61871 40.1964 9.61871C38.429 9.61871 36.9434 10.7456 36.5339 13.4869C36.1752 16.2018 37.3528 17.354 39.0948 17.354ZM59.0419 19.5357H57.9599C56.597 19.5357 55.9439 19.1282 55.706 18.129L55.6017 17.6923L55.2995 18.0247C54.778 18.6008 54.0556 19.2238 53.3099 19.525C52.5719 19.7892 51.7112 19.9666 50.7217 19.9666C48.5956 19.9666 46.3418 19.3008 46.8029 16.4572C47.648 11.2574 55.6398 13.6906 56.2022 11.2574C56.2792 9.95113 55.6134 9.36233 54.0508 9.36233C52.5398 9.36233 51.7199 9.79808 51.3358 11.2067H48.1345C48.6463 8.79887 50.4907 6.9808 54.5119 6.9808C56.7013 6.9808 58.2133 7.47699 58.9747 8.51812L59.0049 8.56783C59.3646 9.12739 59.3744 10.1763 59.2106 11.2847L58.5184 15.9503C58.4473 16.4855 58.5038 16.8364 58.6959 17.0567C58.8343 17.2146 59.0351 17.2946 59.2915 17.2946H59.4436L59.0419 19.5357Z" fill="white"/>
<path d="M50.3526 16.3151C50.2249 17.2373 50.7883 17.8261 52.12 17.8261C54.1691 17.8261 55.3467 16.4175 55.6547 14.4707L55.7064 13.9326C53.7596 14.9318 50.6343 14.2153 50.3526 16.3151Z" fill="white"/>
<path d="M22.335 16.3151C22.2073 17.2373 22.7708 17.8261 24.1024 17.8261C26.1515 17.8261 27.3291 16.4175 27.6372 14.4707L27.6888 13.9326C25.7421 14.9318 22.6177 14.2153 22.335 16.3151Z" fill="white"/>
<path d="M67.3578 3.79004H64.0532L63.515 7.29945H61.4406L60.9795 9.68195H63.0549L62.1327 15.9833C61.6716 18.8776 63.1826 19.7744 65.8215 19.7744H68.1523L68.6905 16.9825H67.0254C65.6685 16.9825 65.4374 16.6501 65.6685 15.0104L66.3859 9.68292H69.6136L70.0747 7.30042H66.848L67.3578 3.79004Z" fill="white"/>
<path d="M77.8065 7.04297C74.067 7.04297 71.0187 9.06673 70.3022 13.549C69.5847 18.0313 71.9925 20.0288 75.732 20.0288C79.2151 20.0288 81.5723 18.4661 82.4428 15.9306H79.0874C78.4723 17.0828 77.4224 17.5186 76.2701 17.5186C74.2727 17.5186 73.4782 16.2639 73.5805 14.3425H82.8532L83.1856 12.3188C83.6214 8.88638 81.1882 7.04297 77.8065 7.04297ZM79.7532 12.2681H73.99C74.4764 10.6538 75.5263 9.55317 77.2937 9.55317C78.9597 9.5522 80.0096 10.5261 79.7532 12.2681Z" fill="white"/>
<path d="M86.6933 2.35547L83.9268 19.7729H87.2568L90.0224 2.35547H86.6933Z" fill="white"/>
<path d="M89.8164 19.7729H93.1465L95.913 2.35547H92.583L89.8164 19.7729Z" fill="white"/>
<path d="M103.571 7.04297C99.8316 7.04297 96.7833 9.06673 96.0668 13.549C95.3493 18.0313 97.7572 20.0288 101.497 20.0288C104.981 20.0288 107.337 18.4661 108.207 15.9306H104.852C104.237 17.0828 103.187 17.5186 102.034 17.5186C100.036 17.5186 99.2419 16.2639 99.3442 14.3425H108.617L108.95 12.3188C109.385 8.88638 106.952 7.04297 103.571 7.04297ZM105.517 12.2681H99.7537C100.24 10.6538 101.29 9.55317 103.058 9.55317C104.723 9.5522 105.773 10.5261 105.517 12.2681Z" fill="white"/>
</svg>
